<?xml version="1.0" encoding="utf-8"?>
<!-- Generator: Adobe Illustrator 26.1.0, SVG Export Plug-In . SVG Version: 6.00 Build 0)  -->
<svg version="1.1" id="Layer_1" xmlns="http://www.w3.org/2000/svg" xmlns:xlink="http://www.w3.org/1999/xlink" x="0px" y="0px"
	 viewBox="0 0 1400 280" style="enable-background:new 0 0 1400 280;" xml:space="preserve">
<style type="text/css">
	.st0{fill:#FFFFFF;}
</style>
<g>
	<g>
		<path class="st0" d="M213.6,112.7c0-42.4-28.5-77.6-81.3-77.6H11.6v226h68.5v-72.5h24.7l31.2,72.5h77.9l-41-80
			C190.9,172.4,213.6,151.7,213.6,112.7z M121.7,131.7H80.1V92.1h41.7c11.5,0,22.4,7.5,22.4,19.7
			C144.1,124.2,133.3,131.7,121.7,131.7z"/>
		<polygon class="st0" points="241.4,261.2 412.8,261.2 412.8,204.2 309.8,204.2 309.8,175.4 410.5,175.4 410.5,118.5 309.8,118.5 
			309.8,92.1 412.8,92.1 412.8,35.1 241.4,35.1 		"/>
		<polygon class="st0" points="592.4,149 513.8,35.1 443.3,35.1 443.3,261.2 511.8,261.2 511.8,139.8 595.1,261.2 660.9,261.2 
			660.9,35.1 592.4,35.1 		"/>
		<polygon class="st0" points="908.9,35.1 825.2,35.1 765.9,119.7 765.9,35.1 697.5,35.1 697.5,261.2 765.9,261.2 765.9,198.5 
			778.5,181.5 829.3,261.2 912.7,261.2 823.5,140.2 		"/>
		<polygon class="st0" points="1320,35.1 1320,149 1241.4,35.1 1170.9,35.1 1170.9,261.2 1239.3,261.2 1239.3,139.8 1322.7,261.2 
			1388.4,261.2 1388.4,35.1 		"/>
	</g>
	<path class="st0" d="M1100,48c-24.8-24.7-45.7-45.2-83.5-45.2c-46.1,0-76.5,29.3-99.6,64.6c-14.9,22.8-31.5,44.5-31.5,74.2
		c0,37.9,21.4,67.1,44.8,91.5c23.3,24.5,48.5,44.2,86.4,44.2c36.5,0,61.9-12.9,86.5-36.1c26.5-25,50.8-61.9,50.8-101.2
		C1153.8,102,1124.9,72.8,1100,48z M950.4,91.2c2.2-1.9,5.3-0.6,8.6,0.5c2.7,0.9,5.7,1.3,7.4,3.3c3.8,4.5,3.6,10.9-0.5,14.4
		s-10.5,2.7-14.3-1.8C947.8,103.2,946.4,94.7,950.4,91.2z M921.9,144.1c0-5.3,5.3-7.9,10.6-11.1c4.4-2.6,8.3-6.3,13.1-6.3
		c10.5,0,19,7.8,19,17.4s-8.5,17.4-19,17.4S921.9,153.7,921.9,144.1z M977.1,220.6c-9.6,9.6-28.7,14.5-37.4,5.7
		c-4.8-4.8-2.4-12-0.5-19.8c1.6-6.4,1.8-13.3,6.2-17.7c9.6-9.6,24.5-10.3,33.2-1.5C987.3,196.2,986.7,211,977.1,220.6z M1017.1,29
		c9.5,0,14.3,9.6,20.1,19.2c4.8,7.9,11.4,15.1,11.4,23.7c0,19-14.1,34.5-31.5,34.5S985.6,91,985.6,71.8S999.7,29,1017.1,29z
		 M1018.6,259.9c-7.5,0-11.3-7.6-15.8-15.1c-3.8-6.3-9-11.9-9-18.7c0-15,11.1-27.2,24.8-27.2s24.8,12.2,24.8,27.2
		S1032.3,259.9,1018.6,259.9z M1052.5,101.2c6.5-6.5,19.5-9.8,25.4-3.9c3.2,3.2,1.6,8.2,0.3,13.4c-1.1,4.3-1.3,9-4.2,12
		c-6.5,6.5-16.6,7-22.5,1C1045.5,117.8,1046,107.7,1052.5,101.2z M1082.1,201.5c-2.3,3.5-7,2.8-11.9,2.6c-4.1-0.2-8.3,0.4-11.4-1.7
		c-6.9-4.7-9.1-13.6-4.8-19.9c4.3-6.3,13.4-7.6,20.3-3C1081.2,184.2,1086.4,195.2,1082.1,201.5z M1127.5,150.1
		c0,6.8-6.8,10.2-13.7,14.3c-5.6,3.4-10.7,8.1-16.9,8.1c-13.6,0-24.6-10-24.6-22.4s11-22.4,24.6-22.4S1127.5,137.7,1127.5,150.1z"/>
</g>
</svg>
