<?xml version="1.0" encoding="utf-8"?>
<!-- Generator: Adobe Illustrator 26.1.0, SVG Export Plug-In . SVG Version: 6.00 Build 0)  -->
<svg version="1.1" id="Layer_1" xmlns="http://www.w3.org/2000/svg" xmlns:xlink="http://www.w3.org/1999/xlink" x="0px" y="0px"
	 viewBox="0 0 222.8 222.8" style="enable-background:new 0 0 222.8 222.8;" xml:space="preserve">
<style type="text/css">
	.st0{display:none;}
	.st1{clip-path:url(#SVGID_00000149369673713631888070000014146164669905044671_);}
	.st2{fill:#FFFFFF;}
</style>
<g id="Backgroudn">
</g>
<g id="Layer_25">
</g>
<g id="Back_Accessories" class="st0">
</g>
<g id="Effect" class="st0">
</g>
<g id="_x30_2_F_Hair_Back">
</g>
<g id="_x30_1_F_Hair_Back">
</g>
<g id="Bodycolor">
</g>
<g id="tattoo">
</g>
<g id="Bodyshadow">
</g>
<g id="Outline">
</g>
<g id="Features">
</g>
<g id="_x30_2_F_Hair_Color" class="st0">
</g>
<g id="_x30_2_F_Hair_Outline" class="st0">
</g>
<g id="_x30_1_M_Hair_Color">
</g>
<g id="_x30_1_M_Hair_Outline">
</g>
<g id="_x30_1_F_Hair_Color">
</g>
<g id="_x30_1_F_Hair_Outline">
</g>
<g id="Hoodie" class="st0">
</g>
<g id="Moodboard">
</g>
<g id="Yukata">
</g>
<g id="_x30_1_F_Fronthair">
</g>
<g id="T_shirrt">
</g>
<g id="Backpackfront">
</g>
<g id="Accessories">
</g>
<g id="Hand_Back">
</g>
<g id="Mask" class="st0">
</g>
<g id="Layer_22" class="st0">
</g>
<g id="_x30_00" class="st0">
</g>
<g id="_x30_01">
</g>
<g id="_x30_04" class="st0">
</g>
<g id="_x30_02">
</g>
<g id="Layer_33">
</g>
<g id="Hand_Front">
	<g>
		<g>
			<defs>
				<rect id="SVGID_1_" x="24.4" y="41.5" width="174.9" height="146.5"/>
			</defs>
			<clipPath id="SVGID_00000085953931805516206060000005466087991544069021_">
				<use xlink:href="#SVGID_1_"  style="overflow:visible;"/>
			</clipPath>
			
				<g id="Group_1" transform="translate(7.269 10.624)" style="clip-path:url(#SVGID_00000085953931805516206060000005466087991544069021_);">
				<path id="Path_1" class="st2" d="M184.7,53c-6,2.6-12.3,4.3-18.8,5.1c6.8-4,11.9-10.5,14.3-18c-6.4,3.8-13.4,6.5-20.7,7.9
					c-12.3-13.1-32.9-13.8-46-1.5c-6.6,6.2-10.3,14.8-10.3,23.8c0,2.5,0.2,5,0.8,7.4C77.8,76.4,53.4,64,36.9,43.6
					c-8.7,14.9-4.3,34,10,43.5c-5.2-0.1-10.2-1.5-14.7-4v0.4c0,15.5,10.9,28.9,26.1,32c-2.8,0.7-5.7,1.1-8.5,1.1
					c-2.1,0-4.2-0.2-6.2-0.6c4.3,13.2,16.5,22.3,30.4,22.7c-11.5,9-25.8,13.9-40.4,13.9c-2.6,0-5.2-0.1-7.8-0.5
					c14.9,9.6,32.3,14.7,50,14.6c59.9,0,92.7-49.7,92.7-92.7c0-1.4-0.1-2.8-0.1-4.2C174.8,65.3,180.3,59.6,184.7,53"/>
			</g>
		</g>
	</g>
</g>
</svg>
